<svg height="512pt" viewBox="-17 0 512 512.00204" width="512pt" xmlns="http://www.w3.org/2000/svg"><path d="m471.46875 134.757812c-50.066406-30.011718-77.550781-61.796874-91.785156-83.179687-14.921875-22.40625-18.808594-38.367187-19.042969-39.375-1.394531-7.203125-7.664063-12.203125-15.007813-12.203125h-212.347656c-7.285156 0-13.5625 5.125-15.019531 12.257812-.128906.640626-14.175781 64.574219-110.816406 122.5-5.804688 3.476563-8.640625 10.351563-6.976563 16.910157 1.339844 5.289062 33.351563 130.433593 80.375 208.445312 29.015625 48.125 65.910156 86.023438 85.320313 104.332031 14.234375 13.429688 28.078125 24.875 40.035156 33.101563 18.820313 12.957031 27.996094 14.457031 33.257813 14.457031 5.261718 0 14.433593-1.5 33.257812-14.457031 11.953125-8.226563 25.796875-19.671875 40.035156-33.101563 19.410156-18.308593 56.304688-56.207031 85.316406-104.332031 47.027344-78.011719 79.039063-203.15625 80.378907-208.445312 1.660156-6.558594-1.175781-13.433594-6.980469-16.910157zm-25.636719 20.1875c-3.804687 13.800782-11.210937 39.46875-21.359375 69.117188h-79.402344c-6.746093-46.519531-43.707031-83.375-90.273437-89.960938v-103.445312h79.574219c8.679687 23.324219 35.488281 75.835938 111.460937 124.289062zm-206 160.132813c-41.101562 0-74.632812-32.933594-75.644531-73.796875.078125-.621094.128906-1.25.128906-1.890625 0-.644531-.050781-1.269531-.128906-1.894531 1.011719-40.859375 34.542969-73.796875 75.644531-73.796875 41.734375 0 75.691407 33.953125 75.691407 75.691406 0 41.734375-33.957032 75.6875-75.691407 75.6875zm-95.289062-284.421875h79.597656v103.546875c-46.226563 6.863281-82.835937 43.582031-89.546875 89.859375h-80.148438c-10.148437-29.648438-17.554687-55.316406-21.359374-69.117188 75.972656-48.453124 102.78125-100.964843 111.457031-124.289062zm40.15625 409.109375c-17.695313-16.9375-51.304688-51.871094-77.59375-95.480469-15.734375-26.101562-29.890625-58.496094-41.636719-89.566406h69.125c6.726562 46.394531 43.515625 83.183594 89.910156 89.910156v128.308594c-9.597656-6.519531-23.078125-17.160156-39.804687-33.171875zm187.113281-95.480469c-26.289062 43.609375-59.898438 78.539063-77.59375 95.480469-16.300781 15.605469-29.515625 26.101563-39.058594 32.660156v-127.796875c46.394532-6.726562 83.183594-43.515625 89.910156-89.910156h68.378907c-11.75 31.070312-25.902344 63.464844-41.636719 89.566406zm0 0"/><path d="m260.066406 211.164062-33.800781 33.800782-8.832031-10.734375c-5.378906-6.535157-15.035156-7.476563-21.574219-2.097657-6.535156 5.378907-7.476563 15.039063-2.097656 21.578126l19.5625 23.773437c2.746093 3.339844 6.777343 5.363281 11.09375 5.570313.25.011718.496093.019531.746093.019531 4.054688 0 7.957032-1.609375 10.835938-4.492188l45.742188-45.738281c5.988281-5.988281 5.988281-15.691406 0-21.679688-5.984376-5.984374-15.691407-5.984374-21.675782 0zm0 0"/></svg>